/* XPM */
static char * moonscape_icon_pack_linux\addressbookWindow_xpm[] = {
"32 32 13 1",
" 	c None",
".	c #0000FF",
"+	c #008080",
"@	c #808080",
"#	c #000000",
"$	c #FF0000",
"%	c #FFFFFF",
"&	c #FFFF00",
"*	c #808000",
"=	c #800000",
"-	c #C0C0C0",
";	c #008000",
">	c #000080",
".+.+.+.+.+.+.+.+.+.+.+.+.+.+.+.@",
"+.+.+.+.+.+.+.+.+.+.+.+.+.+.+.@#",
".+.+.+.+.+.+.+.+.+.+.+.+.+.+.@# ",
"+.+.+.+.+.+.+.+.+.+.+.+.+.+.@#  ",
".+.+.+.+.+.+.+.+.+.+.$$$$#.@#   ",
"+.+.+.+.+.+.+.+%&%&%&$$$$#&%&###",
".+.+.+.+.+.+.+.&%&%%%$$$$#%%%%@#",
"+.+.+.+.+.+.$$$$$@&%&&&&&&&%&&*#",
".+.+.+.+.%%%$$$$$=-&;;;;;#@@@&*#",
"+.+.+.+.+%&%$$$$$=-%;;;;;#@@@#*#",
".+.+.+.+@@@$%%%----;;;;;;#&&&#*#",
"+.+.+%&&&%&%&%&%&%&%&%&%&@#*&#*#",
".+.+.%%%%%%%%%%%..@%%%&*#&#*&#*#",
"+.+.+%&%&%&%&%&....@&%&*#&#*&#*#",
".+.+.%&&%%%%%%%....@%%%*#&#*&#*#",
"+.+.+%>>>>>%&&&....@&%&*#&#*&#*#",
".+.+.%%%%%%%%&&%..@&&%&*#&#*&###",
"+.+.+%&%&%&%&..-%%-..&%*#&#*-#>#",
".+.+.%>>>>>&....@@...>&*#*#*#>>#",
"+.+.+%&%%%&>>.....>>>>>*#*##>>>#",
".+.+.%%%%%%>>>>>>>>>>>>*#*#>>>>#",
"+.#########>>#############>>>>>#",
".+#.-.-.-.-.-.-.-.-.-.-.-#>>>>>#",
"+.#-%-%-%-%-.%.%.%.-.-.-.#>>>># ",
".+#.%%%%%%%%%%%%%.%.-.-.-#>>>#  ",
"+.#-.-.-.-.-.%.%.%.%.%.-.#>>#   ",
".+#.-.-.-.-.-.-.-.-.-.-.-#>#    ",
"+.#-.-.-.-.-.-.-.-.-.-.-.##     ",
".+#>>>>>>>>>##############      ",
"+.@#                            ",
".@#                             ",
"+#                              "};
