/* XPM */
static char * moonscape_icon_pack_linux\AimApp_xpm[] = {
"32 32 15 1",
" 	c None",
".	c #3E3E3E",
"+	c #000000",
"@	c #262626",
"#	c #966200",
"$	c #FFAA25",
"%	c #FFB848",
"&	c #1A1A1A",
"*	c #734A00",
"=	c #503200",
"-	c #969600",
";	c #4A4A4A",
">	c #737300",
",	c #626262",
"'	c #565656",
"                                ",
"                  .++@          ",
"                 ++++++         ",
"                ++#$%#++        ",
"               &+#%%%%$++       ",
"               ++%%%%%%*+       ",
"               +=%%%%%%*+       ",
"               +=%%%%%%*+       ",
"               ++$%%%%$++       ",
"                ++-%%$++;       ",
"               &+++++++&        ",
"              &+@#++++@ &+      ",
"             ;+=%%%+++++++&     ",
"             ++$%%%-===*-++     ",
"             +>%%%%%%%%%%$++    ",
"            ;+-%%%%%%%%%%-++    ",
"            ++%%%%$#$%%-*+++    ",
"            ++%%%%=+++++++;     ",
"            +=%%%%$++++.        ",
"            +=%%%%%%#++.        ",
"           ++-%%%%%%%$++.       ",
"          .+=%%%%%%%%%$=+.      ",
"         @++$%%%-*%%%%%$++      ",
"       .+++$%%%$+++>%%%%$++     ",
"     @+++>%%%%%=++++=$%%%>+@    ",
"     ++-$%%%%%=+&  &++$%%%&+    ",
"     ;+-%%%%%=+&    .++$%%#+@   ",
"      +&%%%#++&      .+=%*++&   ",
"      &+#,+++.        &++++'    ",
"       ++++@           ++@      ",
"       &@                       ",
"                                "};
