/* XPM */
static char * moonscape_icon_pack_linux\Communicator_xpm[] = {
"32 32 11 1",
" 	c None",
".	c #008080",
"+	c #0000FF",
"@	c #FFFF00",
"#	c #FF0000",
"$	c #000080",
"%	c #808080",
"&	c #C0C0C0",
"*	c #000000",
"=	c #FFFFFF",
"-	c #808000",
".+.+.+@@@#.+.+.+$+.+.+.+.+.+.+.%",
"+.+.+.+.+@@##.++&$+.+.+.+.+.+.%*",
".+.+.+.+.+.@@@#&=*$+.+.+.+.+.%* ",
"+.+.+.+.+.+.$@&=&%*$+.+.+.+.%*  ",
".+.+.+.+.+.$$&=&&&%*#$.+.+.%*   ",
"+.+.+.+.+.+.&===&%%%*@$.+.%*    ",
".+.+.+.+.+.**$%%@$****@#.-*     ",
"+.+#####+.+.$*=@#@##*#@@#*      ",
".+##@#@@@@.+$*=@@#@#*+#@@#@     ",
"+#@#@.+.+@@=***%#%+***%#@@#@    ",
"#@#@.+.+.+.$@$==$@-#*.* #@##@   ",
"##@@+.+.+.+$**$&%%$$***  #@##@  ",
"#@=..+.+.+.**%%&&&%.*$*   #@##  ",
"#=@=+.+.+.+.+%&==&%%$      #### ",
"#@=@.+.+.+.+.%%==&%.$       ### ",
"+@@=..+.+.+.+%&==&%%$       ####",
"+-@=@+.+.+.+.%%==&%.$        ###",
"++@@@=+.+.+.+%&==&%%$        ###",
".+#@@@=+.+.+$%%==&%.$        ###",
"+.+#@@@=+.+.$%&==&%%$        ###",
".+.+#@@@=+.+$%%==&%.%$      ####",
"+.+.+#@#@@@.$%&==&%%*$      ### ",
".+.+.+#@#@#@@%%==&%.%*     #### ",
"+.+.+.+#@#@#@#@#=&%%**   #####  ",
".+.+.+.%*##@#@#@#############   ",
"+.+.+.%*  #################     ",
".+.+.%*    $%&#########         ",
"+.+.%*     $%&===&%%*%*         ",
".+.%*      +%&&==&%.%***%%%%%%  ",
"+.%*       $%&=&=&%%*%**%%%%%   ",
".%*        +%&&=%%%*%***%%%%    ",
"+*         ****%%%*****%%       "};
