/* XPM */
static char * moonscape_icon_pack_linux\Conference_xpm[] = {
"32 32 11 1",
" 	c None",
".	c #008080",
"+	c #0000FF",
"@	c #808080",
"#	c #000000",
"$	c #FF0000",
"%	c #800000",
"&	c #FFFFFF",
"*	c #FFFF00",
"=	c #C0C0C0",
"-	c #FF00FF",
".+.+.+.+.+.+.+.+.+.+.+.+.+.+.+.+",
"+.+.+.+.+.+.+.+.+.+.+.+.+.+.+.@#",
".+.+.+.+.+.+.+.+.+.+.+.+.+.+.@# ",
"+.+.+.+.+.+.+.+.+.+.+.+.+.+.@#  ",
".+.+.+.+.+.+.+.+.+.+.+.+.+.@#   ",
"+.+.+.+.+.+.+.+.+.+.+.+.+.@#    ",
".+.+.+$$%%%%#+#+.+.+.+.+.@#     ",
"+.+.+%$%%%#%%#+#+.+.+.+.@#      ",
".+.+.$$%%$%%%%#+#+.+.+.@#       ",
"+.+.+%$%%%#$#%%#+#+.+.@#        ",
".+.+.$$%%$%%%%%%#+#+.@#         ",
"+.+.+%$%%%%$%$%%+#+#@#          ",
".+.+.$$&%%%%#%#%#+#+#           ",
"+.+.+%$$*%%%%%%%+#+#            ",
".+.+.$%$$$%%%%%$#+#             ",
"+.+.+%$$$$$$$$$#@#@             ",
".+.+.+%$$$$$%%#@#@@@            ",
"+.+.+.+%$$$$$%%#@@@@@           ",
".+.+.+.+%$$$$%%%@@@@@@          ",
"+.+.+.+.+%$$$$%%%=@@@@@         ",
".+.+.+.+.+#$$$$%%%=@@@@@@@@@@@  ",
"+.+.+.+.+.@#$$$$%%%=@@@@@@@@@@@ ",
".+.+.+.+.@# #$$$$%%%=@@%%%%%@@@@",
"+.+.+.+.@#   #$$$$%%%=$%%%%%%%@@",
".+.+.+.@#     #$$$$%%%$%%%$$%%%@",
"+.+.+.@#       #$$$$%%$$%%%%%%%%",
".+.+.@#         #$$$$$*$%%%$$%%%",
"+.+.@#           #$$$$$&$%%%%%%%",
".+.@#             #$$$$$=-%%%%%%",
"+.@#   % % % %     #$$$$$$$$%%%%",
".@#   % % % % %     #$$%$%$%$%$ ",
"+#  %%% % % % %%%%%% #%$%$%$%$  "};
