/* XPM */
static char * moonscape_icon_pack_linux\downloadManager_xpm[] = {
"32 32 10 1",
" 	c None",
".	c #000000",
"+	c #FFFFFF",
"@	c #C0C0C0",
"#	c #808080",
"$	c #008000",
"%	c #00FF00",
"&	c #000080",
"*	c #008080",
"=	c #FFFF00",
" ...+..@..........@..           ",
".+++##@.@+++++++++.++.          ",
".+@@#@@#+@@@@@@@@@#+@@.         ",
".+@@#@@#+@@@@.##@@#+@@#.        ",
".+@@#@@#+@@@@.##@@#+@@@#        ",
".+@@#@@#+@@@@.##@@#+@@$.        ",
".+@@#@@@###########+@$+%.       ",
".+@@@@@@@@@@@@@@@@@@@$%%.       ",
".+@@................+@..  $&    ",
".+@@.&...&.&&.&...&.+@@# $+%&   ",
".+@@....&$&.*&&*....+@#. $%*&   ",
".+@@.*&++++*.&+++&&&+@#.  ..    ",
".+@@&&**++*&*&.+.*&&+@#.        ",
".+@@&*&*+@+*$**+*&*&+@#.  $&    ",
".+@@*&**+*@+***+**&*+@#. $+%&   ",
".+@@*$&*+**@+**+****+@#. $%*&   ",
".+@@****+***@+*+****+@#.  ..    ",
".+@@****+****@@+****+@##        ",
".+@@***.+.......****+@#@$$$...  ",
".+@@*..+++........#*+@#@.++$*.  ",
".+@@...............*+@#@.%%$*.  ",
".+@@................+@#@.%%$*.  ",
".+@@................@@#@&=%$*.  ",
".@#@#@#@#@#@#@#@#@#@###@$=%$*.  ",
" ...................... .=%$*.  ",
"                        &+%$*.  ",
"                     ..$.+%$$...",
"                     .%=%+%%$*$.",
"                      .%=+%$%$. ",
"                       .%+%$$.  ",
"                        .%%$.   ",
"                         .$.    "};
