/* XPM */
static char * moonscape_icon_pack_linux\help_xpm[] = {
"32 32 5 1",
" 	c None",
".	c #000000",
"+	c #FFFFFF",
"@	c #0000FF",
"#	c #C0C0C0",
"  ............................  ",
"  .++++++++++++++++++++++++++.  ",
"  .++++++++++++++++++++++++++.  ",
"  .++++++++++++++++++++++++++.  ",
"  .++++++++++++++++++++++++++.  ",
"  .++++++++++++++++++++++++++.  ",
"  .+++++++++@@@@@@@@+++++++++.  ",
"  .++++++++@@@@@@@@@@++++++++.  ",
"  .+++++++@@@@@++@@@@@+++++++.  ",
"  .+++++++@@@@++++@@@@+++++++.  ",
"  .+++++++@@@@++++@@@@+++++++.  ",
"  .+++++++@@@@++++@@@@+++++++.  ",
"  .+++++++++++++++@@@@+++++++.  ",
"  .++++++++++++++@@@@@+++++++.  ",
"  .+++++++++++++@@@@@++++++++.  ",
"  .++++++++++++@@@@@+++++++++.  ",
"  .+++++++++++@@@@@++++++++++.  ",
"  .+++++++++++@@@@+++++++++++.  ",
"  .+++++++++++@@@@+++++++++++.  ",
"  .+++++++++++@@@@+++++++++++.  ",
"  .++++++++++++++++++++++++++.  ",
"  .++++++++++++++++++++++++++.  ",
"  .+++++++++++@@@@+++++++++++.  ",
"  .+++++++++++@@@@+++++++++++.  ",
"  ........++++@@@@+++++++++++.  ",
"   .+++++.++++@@@@+++++++++++.  ",
"    .++++.##+++++++++++++++++.  ",
"     .+++.##+++++++++++++++++.  ",
"      .++.##+++++++++++++++++.  ",
"       .+.##+++++++++++++++++.  ",
"        ..##+++++++++++++++++.  ",
"         .....................  "};
