/* XPM */
static char * moonscape_icon_pack_linux\image_file_xpm[] = {
"32 32 12 1",
" 	c None",
".	c #808080",
"+	c #FFFFFF",
"@	c #C0C0C0",
"#	c #008000",
"$	c #000000",
"%	c #00FF00",
"&	c #00FFFF",
"*	c #0000FF",
"=	c #000080",
"-	c #FF00FF",
";	c #800080",
" .....................          ",
" .+++++++++++++++++++..         ",
" .+++++++++++++++++++.@.        ",
" .++@@@@@@@@@@@@@@@@@.+@.       ",
" .++@@@@@@....@@@@@@@.++@.      ",
" .++@@@@@..##@$$@@@@@.+++@.     ",
" .++@@@@..++#.#$@@@@@.++++@.    ",
" .++@@@@.#.@.###$@@@@.+++++@.   ",
" .++@@@@.##.@%##$@@@@$$$$$$$$   ",
" .++@@@@.@.####$$@@@@@......$.  ",
" .++@@@@.$####$$..@@@@@.....$.  ",
" .++@@@@@$$#$$$$.@@@@@@@@@++$.  ",
" .++@@@@@@.$$$...@@@@@@@@@++$.  ",
" .++@@@@@@@....@&.......$@++$.  ",
" .++@.@@@@@@@@@@.+&&&*&=$.++$.  ",
" .++@.$@@@@@@@@@.&&&*&*=$.++$.  ",
" .++@.+$@@@@@@@@.&&*&**=$.++$.  ",
" .++@.++$@@@@@@@.&*&***=$.++$.  ",
" .++@.+-+$@@@@@@.&&****=$.++$.  ",
" .++@.+--+$@@@@@.&*****=$.++$.  ",
" .++@.+--;+$@@@@.=======$.++$.  ",
" .++@.+--;-+$@@@$$$$$$$$$.++$.  ",
" .++@.+-;--;-$@@@.........++$.  ",
" .++@.+;;;;;;;$@@@@@@@@@@@++$.  ",
" .++@.-;.......$@@@@@@@@@@++$.  ",
" .++@$$$$$$$$$$$$@@@@@@@@@++$.  ",
" .++@@............@@@@@@@@++$.  ",
" .++@@@@@@@@@@@@@@@@@@@@@@++$.  ",
" .++++++++++++++++++++++++++$.  ",
" .++++++++++++++++++++++++++$.  ",
" $$$$$$$$$$$$$$$$$$$$$$$$$$$$.  ",
"  ............................  "};
