/* XPM */
static char * moonscape_icon_pack_linux\js_file_xpm[] = {
"32 32 8 1",
" 	c None",
".	c #808080",
"+	c #000000",
"@	c #C0C0C0",
"#	c #000080",
"$	c #FFFFFF",
"%	c #FFFF00",
"&	c #008080",
"  ......................++      ",
" ..@.@.@.@.@.@.@.@.@.@.+##+     ",
".@$@$@$@$@$@$@$@$@$@$@+##.#+    ",
".$$$$$$$$$$$$$$$$$$$$$+++..+    ",
".@@@@@@@@@@@@@@@@@@@@@+..+.+    ",
".......................+++.+    ",
" .#######################+.+    ",
"  .........................+    ",
"  .@@@@@@@@@@@@@@@@@@@@@@..+    ",
"  .%@&&&&&&&&&&&@%@%@%@%@@.+    ",
"  .@$&&&&&&&&&&&$@$@$@$@$.+     ",
"  .$$&&$$$&$$$&&$$$$$$$$$.+     ",
"  .$%&&&$$&&$&&&%$%$%$%$$.+     ",
"  .$$&&&$&$&$&&&$$$$$$$$@.+     ",
"  .$$&&&$&&$$&&&%$%$%$%$@..     ",
"  .$$&&&$&&&$&&&$$$$$$$$.+      ",
"  .$$&+$$$+++#&&%$%$%$%$.+      ",
"  .$$&+++++++++#$$$$$$$$.+      ",
" @.$$&++++++++++%$%$%$%$.+      ",
" @@$$$$$$$$$$$$$$$$$$$$$.+      ",
" .$$$$%$%$%$%$%$%$%$%$%$.+      ",
" .$$$................$$$+.      ",
"@.$$%$%$%$%$%$%$%$%$%$%$+.      ",
".@$$.............$$$$$$$+++++#  ",
".$$$%$%$%$%$%$%$%$%$%$%$+#.+.#+ ",
".%$$.............$$$$$$%+.+.@.#+",
".@%@%@%@%@%@%@%@%@%@%@@@+.+++..+",
".%@%@................%@@+.+#.+.+",
".@@@@@@@@@@@@@@@@@@@@@@@+.+++@.+",
" .@.@.@.@.@.@.@.@.@.@.@.@+..@..+",
"  ........................+..@+ ",
"   .++++++++++++++++++++++++++  "};
