/* XPM */
static char * moonscape_icon_pack_linux\mozilla_xpm[] = {
"32 32 52 1",
" 	c None",
".	c #444244",
"+	c #7C7A7C",
"@	c #040204",
"#	c #D4D2D4",
"$	c #DCDEDC",
"%	c #8C8E8C",
"&	c #647E94",
"*	c #6C869C",
"=	c #8CA6BC",
"-	c #8CA2BC",
";	c #84A2BC",
">	c #849EBC",
",	c #7C96AC",
"'	c #849EB4",
")	c #C4E2FC",
"!	c #BCD6EC",
"~	c #B4CEE4",
"{	c #B4D2EC",
"]	c #BCD2EC",
"^	c #C4DEF4",
"/	c #94AEC4",
"(	c #A4BED4",
"_	c #7C9AB4",
":	c #64829C",
"<	c #7492AC",
"[	c #748EA4",
"}	c #ACC6DC",
"|	c #C4DAF4",
"1	c #BCDAF4",
"2	c #A4C2DC",
"3	c #9CB6CC",
"4	c #8CAAC4",
"5	c #6C8AA4",
"6	c #94B2CC",
"7	c #9CB2CC",
"8	c #6C86A4",
"9	c #CCE2FC",
"0	c #ACCAE4",
"a	c #C4DEFC",
"b	c #6C829C",
"c	c #A4BEDC",
"d	c #B4CEEC",
"e	c #9CBAD4",
"f	c #748EAC",
"g	c #647E9C",
"h	c #8CA6C4",
"i	c #ACC6E4",
"j	c #BCD6F4",
"k	c #94AECC",
"l	c #9CB6D4",
"m	c #646664",
".++++++++++++++++++++++++++++++@",
".#$$$$$$$$$$$$$$$$$$$$$$$$$$$$%@",
".#&&&&&&&&&&&&&&&&&&&&&&&&&&&&%@",
".#+&&&&&&&&&&&&&&&&&&&&&&&&&&&%@",
".#&&&*==-------=;;;;->-,*&&&&&%@",
".#&&&')!~!~!{]{~{{~{{{!^!=&&&&%@",
".#&&&={&&&&&&&&&&&&&&&&*=^/&&&%@",
".#+&&(~_*&&,,_,,&&:;-;;<&'^[&&%@",
".#&&&}))[&&|))){&&,)!1^/&&!=&&%@",
".#&&&&'):&*),:(2&&'!::1;&&}3&&%@",
".#&&&&=!&&,^*&~/&&/{&*)[&&{/&&%@",
".#+&&&3}&&;^&&!4&&32&,)5&:!'&&%@",
".#&&&&}3&&/{&:),&&}6&;$&&*)[&&%@",
".#&&&&{/&&(2&[)5&&!4&/~&&,^*&&%@",
".#+&&:^;&&}7&'^:&:^,&((&&;!&&&%@",
".#&&&*)<&&!=&/~&&[)*&}3&&6~&&&%@",
".#&&&,)*&89,&30&&'^:&1=&&((&&&%@",
".#&&&=!&&[)5&}3&&={&*)_&&~/&&&%@",
".#+&&6~&&'ab&!=&&(}&<)*&&1=&&&%@",
".#&&&2c&&/]&:),&&}3&'^&&*)<&&&%@",
".#&&&d6&&3}&[9[&&{=&/!&&<^*&&&%@",
".#&&&1>&&}e&,):&ba'&3}&&'^&&&&%@",
".#&&89,&&1=&=!&&5)[&}3&&/~&&&&%@",
".#&&f98&:a'&e}&&,)8&!=&&(2&&&&%@",
".#ggh!8g[a<gieg:4!::)_&&~6&&&&%@",
".#gg6jgg_aggd/gg3}&[9[&:!=&&&&%@",
".#g:ea~~j1g8aj~~!(&,9~~~9,&+&&%@",
".#ggh6klkhg:klkl/,&[/////*&&&&%@",
".#gggggggggggggg&&&&&&&&&&&&&&%@",
".#gggggggggggggg&&&&&&&&&&&&&&%@",
".mmmmmmmmmmmmmmmmmmmmmmmmmmmmmm@",
"@@@@@@@@@@@@@@@@@@@@@@@@@@@@@@@@"};
