/* XPM */
static char * moonscape_icon_pack_linux\msgcomposeWindow_xpm[] = {
"32 32 14 1",
" 	c None",
".	c #0000FF",
"+	c #008080",
"@	c #808080",
"#	c #000000",
"$	c #C0C0C0",
"%	c #FFFFFF",
"&	c #FF0000",
"*	c #FFFF00",
"=	c #000080",
"-	c #800000",
";	c #808000",
">	c #008000",
",	c #00FFFF",
".+.+.+.+.+.+.+.+.+.+.+.+.+.+.+.@",
"+.+.+.+.+.+.+.+.+.+.+.+.+.+.+.@#",
".+.+.+.+.+.+.+.+.+.+.+.+.+.+.@# ",
"+.+.+.+.+.+.+.+.+.+.+.+.+.+.@#  ",
".+.+.+.+.+.+.+.+.+.+.##+.+.@#   ",
"+.+.+.+.+.+.+.+.+.+@@$..+.@#    ",
".+.+.+.+.+.+.+.+.+$$%&&$&&#     ",
"+.+.+.*@===.+.+@$..%%%%$..#     ",
".+.+.+@*-;--=$&&$%%>>>%%%$&&+   ",
"+.+.+.@$%$;-=$$%%%*%%%*%*%%%... ",
".+.+.+.@*-$;-#%$%$%@%$%*%$%$%&&#",
"+.+.+.+@*%*-;-==*@@%%%%%$%$%$%%#",
".+.+.;$;**%;-;#@%%%$%@%$%$%%..##",
"+.+#&&%;@;*%#.##$$*@@%$%$%$%%## ",
".#$%%%%$%$@%.####$$%%%%%%&&@##  ",
"##..$%%%$%$@$+####$$$*%*%$@##$# ",
".##$%%%%%%%#+++####$$%*..@##$#  ",
"+.+#$&&%%%$%$@,+####$$%$@##$#   ",
".+.##$$%%%%$%$@%+####@$@##$#    ",
"+.#$$##@..$%%%*@$+####$#.$#     ",
".#$*$*##$$%%%$%%@$+#####$#      ",
"+.#%$$$$#>$&&%$**@$######$      ",
".+.#%*$*$#$$%$*&&&#$+####%#     ",
"+.+.#%%$$$##$%$$$#$#$#$#==$#    ",
".+.+.#%*$*$##@..#$%$#$+.+##$#   ",
"+.+.+.#%%$$$$#@#$%$#$@.$#+##$#  ",
".+.+.@##$*$*%$#$%$#$  #@%#+##$# ",
"+.+.@#  #%%$$$%$$#$    #@,#+### ",
".+.@#    #$*%*$$#$      #@+#+###",
"+.@#      #$%%$#$        #@+#+##",
".@#        #%$#$          #@+###",
"+#          ##             #### "};
