/* XPM */
static char * moonscape_icon_pack_linux\netcasterWindow_xpm[] = {
"32 32 12 1",
" 	c None",
".	c #0000FF",
"+	c #008080",
"@	c #808000",
"#	c #808080",
"$	c #000000",
"%	c #FFFF00",
"&	c #FF0000",
"*	c #800000",
"=	c #C0C0C0",
"-	c #00FFFF",
";	c #FFFFFF",
".+.+.+.+.+.+.+.+.+.+.+.+.+.+.+.+",
"+.+.@.+.+@+.+.@.+.+.+.+.+.+.+.#$",
".+.+.%.+.%.+.%.+.+.+.+.+.+.+.#$ ",
"+.+.+.%.+%+.%.+.+.+.+.+.+.+.#$  ",
".+.+.+.%&&&%.+.+.+.+.+.+.+.#$   ",
"+.+.+.+&%&&&+.+.+.+.+.+.+.#$    ",
".+@%%+.&&&&*.+.%%%.%%=.=@@$     ",
"+.+.+.+&*&*&+.+.+.+.+.+.#$      ",
".+.+.+.-&*&-.+.+.+.+.+.+$       ",
"+.+.+.%.+.+.%.+.+.+.+.#$        ",
".+.+.%.+.+.+#=##.+.+.#$         ",
"+.+.%.+.+%+.#;=$===.#$          ",
".+.@.+.+.%.+===#$$$===          ",
"+.@.+.+.+%+.##$=$++#$$#== ---=#$",
".+.+.+.+.+.+=$++=$#   =$$##====$",
"+.+.+.+.+%+.=$++#=$  ====###==+$",
".+.+.+.+.%.+=$+#$=+$=====-=;==$$",
"+.+.+.+.+.+.=$#$ ==$===-;---=#$$",
".+.+.+.+.%.+=$$ ====$=-=;;;-=$$$",
"+.+.+.+.+.+.=$ ======$=;;;-=$$$ ",
".+.+.+.+.+.#=$====;=;=$;;-#$$$$ ",
"+.+.+.+.+.#$=$===;=;;=#;##$$$$$ ",
".+.+.+.+.#$==$##==;;;;;#$$$$$$  ",
"+.+.+.+.#$===$#==;;;;;$$$$$$$   ",
".+.+.+.#$ ===##=;=;=$$$$$$$$    ",
"+.+.+.#$ ========;$$$$$$$$$$    ",
".+.+.#$  =====#$$$$$$$$$$$$#$   ",
"+.+.#$    $$$$$$$$$$$$$#$$##$$$ ",
".+.#$      $$$$$$$$$$## $# # $# ",
"+.#$             $###  $$#$$$$#$",
".#$              #$$ =$ $$$$  $#",
"+$                #=$$# $$$+$$+$"};
