/* XPM */
static char * moonscape_icon_pack_linux\Netscape_xpm[] = {
"32 32 9 1",
" 	c None",
".	c #000000",
"+	c #FFFFFF",
"@	c #C0C0C0",
"#	c #008080",
"$	c #000080",
"%	c #808080",
"&	c #0000FF",
"*	c #00FFFF",
"................................",
".+++++++++++++++++++++++++++++@.",
".+.#.#.#.#.#.#.#.#.#.#.#.#.#.$%.",
".+#.#.#.#.#.#.#.#.#.#.#.#.#.#$%.",
".+.#.#.#.#.#.#.#.#.#.#.#.#.#.$%.",
".+#.#.#$#$#.#.#.#.#$#$#$#.#.#$%.",
".+.#.@++++@#$#$#$#$+++++++.#.$%.",
".+#$#$&%+++@#$#$#$#$&@+@%$#$#$%.",
".+$#.#$&@+++@#$#$#$#$#+%$#$#$$%.",
".+#$#$#&@++++@#$#$#$##+%$$#$#$%.",
".+$#$#$&@+&+++@#&#&#&#+%$#$#$$%.",
".+#$#$#&@+$#+++@#&#&##+%#&#$#$%.",
".+$#&#&&@+&$#+++@#&#&#+%&#&#$$%.",
".+#&#&#&@+$#$#+++@#&##+%#&#&#$%.",
".+&#&#&&@+&$#&#+++@#&#+%&#&#&&%.",
".+#&#&#&@+&#&#&#+++@##+%#&#&#&%.",
".+&#&#&&@+&&#&#&#+++@#+%&#&#&&%.",
".+#&#&#&@+&#&#&#&#+++@+%#&#&#&%.",
".+&#&#&&@+&&#&#&#&#++++%&#&#&&%.",
".+#&#&#&@+#%@@*@*@%#+++%#&#&#&%.",
".+&##%@#@+&%#######%#++%@#&#&&%.",
".+#@%&&@@+@$$&$&$&$&$&+%%*@%#&%.",
".+&&&%++++++%............$.%@&%.",
".+...........................%%.",
".+............................%.",
".+............................%.",
".+............................%.",
".+............................%.",
".+............................%.",
".+............................%.",
".@%%%%%%%%%%%%%%%%%%%%%%%%%%%%%.",
"................................"};
