/* XPM */
static char * moonscape_icon_pack_linux\NSPage_xpm[] = {
"32 32 7 1",
" 	c None",
".	c #808080",
"+	c #FFFFFF",
"@	c #000000",
"#	c #008080",
"$	c #C0C0C0",
"%	c #000080",
"                                ",
"   ...................          ",
"   .+++++++++++++++++.@         ",
"   .+++++++++++++++++..@        ",
"   .++###########++++.$.@       ",
"   .++###########++++.$$.@      ",
"   .++##+++#+++##++++.+$$.@     ",
"   .++###++##+###++++.+++$.@    ",
"   .++###+#+#+###++++.@@@@@@.   ",
"   .++###+##++###++++++++++@.   ",
"   .++###+###+###++++++++++@.   ",
"   .++#@+++@@@%##++++++++++@.   ",
"   .++#@@@@@@@@@%++++++++++@.   ",
"   .++#@@@@@@@@@@++++++++++@.   ",
"   .+++++++++++++++++++++++@.   ",
"   .+++++++++++++++++++++++@.   ",
"   .+++++++++++++++++++++++@.   ",
"   .+++++++++++++++++++++++@.   ",
"   .+++++++++++++++++++++++@.   ",
"   .+++++++++++++++++++++++@.   ",
"   .+++++++++++++++++++++++@.   ",
"   .+++++++++++++++++++++++@.   ",
"   .+++++++++++++++++++++++@.   ",
"   .+++++++++++++++++++++++@.   ",
"   .+++++++++++++++++++++++@.   ",
"   .+++++++++++++++++++++++@.   ",
"   .+++++++++++++++++++++++@.   ",
"   .+++++++++++++++++++++++@.   ",
"   .+++++++++++++++++++++++@.   ",
"   .+++++++++++++++++++++++@.   ",
"   .+++++++++++++++++++++++@.   ",
"   @@@@@@@@@@@@@@@@@@@@@@@@@.   "};
