/* XPM */
static char * moonscape_icon_pack_linux\package_xpm[] = {
"32 32 81 1",
" 	c None",
".	c #444244",
"+	c #7C7A7C",
"@	c #040204",
"#	c #948A7C",
"$	c #D4B67C",
"%	c #ECC27C",
"&	c #F4CE7C",
"*	c #F4CA7C",
"=	c #ECC67C",
"-	c #DCBA7C",
";	c #845E04",
">	c #644644",
",	c #241204",
"'	c #946204",
")	c #DC9604",
"!	c #D48E04",
"~	c #BC7A04",
"{	c #EC9E04",
"]	c #E4960C",
"^	c #CC8E04",
"/	c #C45244",
"(	c #0C0204",
"_	c #1C0604",
":	c #140204",
"<	c #A46A04",
"[	c #340A04",
"}	c #AC1A04",
"|	c #540A04",
"1	c #0C0A04",
"2	c #841604",
"3	c #CC2204",
"4	c #8C5A04",
"5	c #EC2A04",
"6	c #FC2A04",
"7	c #CC2A0C",
"8	c #F42A04",
"9	c #3C2204",
"0	c #9C6A04",
"a	c #7C4644",
"b	c #DC2204",
"c	c #AC7214",
"d	c #F45E44",
"e	c #8C1A04",
"f	c #242224",
"g	c #FC5E44",
"h	c #5C5A64",
"i	c #141A1C",
"j	c #AC7204",
"k	c #AC6E04",
"l	c #741204",
"m	c #4C3204",
"n	c #BC8204",
"o	c #E49E04",
"p	c #F4A604",
"q	c #E45E44",
"r	c #644204",
"s	c #944E44",
"t	c #4C4244",
"u	c #B4220C",
"v	c #BC1A04",
"w	c #7C5204",
"x	c #A46E04",
"y	c #F42A0C",
"z	c #B47A04",
"A	c #FC3204",
"B	c #744A04",
"C	c #ECA604",
"D	c #FC6644",
"E	c #B47604",
"F	c #2C2A2C",
"G	c #545254",
"H	c #442A04",
"I	c #FCAE04",
"J	c #FCB604",
"K	c #7C6234",
"L	c #F4AE0C",
"M	c #B48E3C",
"N	c #5C4A1C",
"O	c #7C5604",
"P	c #845A04",
".++++++++++++++++++++++++++++++@",
"..+#$%&******=**%*%%%%%%*%-%$%;@",
".>@@@,')!~'''!){]!!))!)!!!!^!!'@",
"./(@@@@,_:@:@,'){!)!!)]!!!!!^!<@",
"..@[}|@1||23}[1<)!!)!!!!!!!!!^4@",
"..|562278}|||[@9))))!)!)!!!!!!0@",
".ab682|(::|1@@@@c!!)!!)!!!!!!!'@",
".d66}:@@12ef1@@@9^){){!{!!!!!!<@",
".g63|}3[[b(hif@@@9j{){{]]!{]!!k@",
".g}l@(2}:}|@@h|l@@@mnop{){))])k@",
".q[@@@28}}ll|,@l2:@@@r~){!{{){k@",
".s@@@[5}}6l([l}3662[(@@9'^o!{)j@",
".t[[(:3u:l553vb66b66vl:@@,w!{{k@",
".d88656b}@|38666666666be[@@m))j@",
".g66666l3l@(}86666b66666b[@@~{x@",
".q8y8b8|}|(@@l5666666666b[@@<)j@",
".d6b668[[[@@@@[3886666662@@@wpz@",
".d66A66[@@@@@@@@l5866666u@|@BCj@",
".g666662@@@@@@@@@[e86866A}3@Bpz@",
".D866665(@@[@@@1hi@[e388y8}@mCE@",
"./66666y}[@l2(@@@FFf@@[|ll(@woz@",
".g|5b66578l[}5l:@@iiG@Ff@@@(~pz@",
".dl[}86y}6868}vb2[@@@@iFfh@9{pE@",
".d8|ilb5}}l[[@@|28b2|@@@@1@'p{n@",
"./uul:1fii@i1:1@@(|}}(@,B<j!ppj@",
".DyAA3(fi@@Hj))km9@@@:r)oppp{pj@",
".DAA7|@F@9~IIIIIII!''ECIIIp{ppj@",
".DA}[l@f9CIIJIJIJIIIpIpIII{I)p~@",
".d638}(KBIIIIIIpILpIIpIIIpp{p{z@",
"./l7Al9MwCIIIJIIIIIpIIpIII{p{Ij@",
".2::|@mNHOP;PPPPPPPOPOPOPPOwOwO@",
"@@@@@@@@@@@@@@@@@@@@@@@@@@@@@@@@"};
