/* XPM */
static char * moonscape_icon_pack_linux\bookmark_window_xpm[] = {
"32 32 9 1",
" 	c None",
".	c #0000FF",
"+	c #008080",
"@	c #808080",
"#	c #000000",
"$	c #00FF00",
"%	c #C0C0C0",
"&	c #FFFFFF",
"*	c #FFFF00",
".+.+.+.+.+.+.+.+.+.+.+.+.+.+.+.@",
"+.+.+.+.+.+.+.+.+.+.+.+.+.+.+.@#",
".+.+.+.+.+.+.+.+.+.+.+.+.+.+.@# ",
"+.+.+.+.+.+.+.+.+.+.+.+.+.+.@#  ",
".+.+.+.+.+.+.+.+.+.+.+.+.$..#   ",
"+.+.+.+.+.+.+.+.+.+.+.+.$+$$+## ",
".+.+.+.+.+.+.+.+.+.+.+.$++++$$$#",
"+.+.+.+.+.+.+.+.+.+.+.$+++++++##",
".+.+.+.+.+.+.+.+.+.+.$+++++++## ",
"+.+.+.+.+.+.+.%++.+.$+++++++##  ",
".+.+.+.+.+.+.%&&&&&$+++++++##   ",
"+.+.+.+.+.+.%&&*&&$+++++++##    ",
".+.+.+.+.+.%&&*&&$+++++++##     ",
"+.+.+.+.+.+%&&&*$+++++++##      ",
".+.+.+.+.+%&*&&$+++++++##&##    ",
"+.+.+.+.+%&&&*$+++++++##&&#     ",
".+.+.+.++&*&&$+++++++##&&#      ",
"+.+.+.+.%&&*$+++++++##&*#       ",
".+.+.+.%&&&$+++++++##&*%#       ",
"+.+.+.%&&*$####$++##&*&#        ",
".+.+.+&&&&*&*&*$+##&%&%#        ",
"+.+.+%&*&*&*&*&$##&*&%#         ",
".+.+%&&&*&*&*&*##&%&*#@         ",
"+.+.%*&*&*&*&%&*&*&*%#@@@@@@    ",
".+.##%%&*&%&*&%*%&%*#@@@@@@@    ",
"+.+.+###%*&*&**%&*&%#@@@@@      ",
".+.+.@#@###%%&%&%&*#@@@@@       ",
"+.+.@#   @@###%%%*#@@@@         ",
".+.@#      @@@##%%#@@           ",
"+.@#          @@###             ",
".@#                             ",
"+#                              "};
