/* XPM */
static char * moonscape_icon_pack_linux\reflib_xpm[] = {
"32 32 12 1",
" 	c None",
".	c #0000FF",
"+	c #008080",
"@	c #000000",
"#	c #FF00FF",
"$	c #800080",
"%	c #808080",
"&	c #800000",
"*	c #C0C0C0",
"=	c #008000",
"-	c #FFFFFF",
";	c #00FF00",
".+.+.+.+.+.+.+@#$@@+.+.+.+.+.+.%",
"+.+.+.+.+.+.+@#$@@$@@.+.+.+.+.%@",
".+.+.+.+.+.+@#$@@$&$&@@+.+.+.%@ ",
"+.+.+.+.+.+@#$@@$&$&$&$@@.+.%@  ",
".+.+.+.+.+@#$@@$&$&$&$&$&@@%@   ",
"+.+.+.+.+@#$@@$&$&$&$&$&$&$@    ",
".+.+.+.+@#$@@$&$&$&$&$&$&$@     ",
"+.+.+.+@#$@@$&$&$&$&$&$&$@@     ",
".+.+.+@#$@@$&$&$&$&$&$&$@%@@@   ",
"+.+.+@#$@@$&$&$&$&$&$&$@%*@==@@ ",
".+.+@@$@@$&$&$&$&$&$&$@%*%@====@",
"+.+.@ @@$&$&$&$&$&$&$@%*%*$@==@ ",
".+.+@ --@@&$&$&$&$&$@%*%*$@==@@ ",
"+.+.@ ----@@$&$&$&$@%*%*$@==@%@ ",
".+.+@$&*----@@&$&$@%*%*$@==@%*@ ",
"+.+@;@@$&*----@@$@%*%*$@==@%*%@ ",
".+@;===@@$&*----@%*%*$@==@%*%*@ ",
"+@@@@====@@$&*---*%*$@==@%*%*%@ ",
".@=*@@@====@@$&*-%*$@==@%*%*%*@ ",
"+@=*-*@@@====@@$&*$@==@%*%*%*@=@",
".@=*---*@@@====@@$@==@%*%*%*@=@ ",
"+@=*-----*@@@====@==@%*%*%*@=@  ",
".@=**------*@@@====@%*%*%*@=@   ",
"+@=;@**------*@@@=@%*%*%*@=@    ",
".+@@=;@**------*@@%*%*%*@=@     ",
"+.+.@@=;@**------**%*%*@=@      ",
".+.+.%@@=;@**-----%*%*@=@       ",
"+.+.%@  @@=;@**---*%*@=@        ",
".+.%@     @@=;@**-%*@=@         ",
"+.%@        @@=;@**@=@          ",
".%@           @@=;@=@           ",
"%@              @@@@            "};
