/* XPM */
static char * moonscape_icon_pack_linux\roam_gst_xpm[] = {
"32 32 11 1",
" 	c None",
".	c #0000FF",
"+	c #008080",
"@	c #808080",
"#	c #000000",
"$	c #C0C0C0",
"%	c #FFFFFF",
"&	c #FF00FF",
"*	c #800080",
"=	c #00FFFF",
"-	c #000080",
".+.+.+.+.+.+.+.+.+.+.+.+.+.+@#  ",
"+$$$$$$$$$$@+.+.+.+.+$$$$$$$$@# ",
".$#########@.+.+.+.+.%%%%%%%%@# ",
"+$#+++++++%@+.+.+.+.+$$$$$$$%@# ",
".$#+ +++++%@&+.+&+.+&$$$$$$$%@# ",
"+$#+++++++%@*&+&*&+&*$#####$%@# ",
".$#+++++++%@#*&*#*&*#$$$$$$$%@# ",
"+$#+++++++%@+#*#+#*#+$#####$%@# ",
".$#+++++++%@.+#+.+#+@$$$$$$$%@# ",
"+$#########.+.+.+.+@#$$$$$$$%@# ",
".+.+@@@@@#.+.+.+.+@# $$$$$$$%@# ",
"$$$$$$$$$$$$@#+.+@#  $$$$$$$%@# ",
"$$$$$$$@@@$$@#.+@#   $$$$$$$%@# ",
"$$$$$$$$$$$$@#+@#    $$$$$$$%@# ",
"@@@@@@@@@@@@@#@#     $$$$$$$%@# ",
"###############      $$$$$$$%@# ",
".+.+.+.+.+.+@#       @@@@@@@@@# ",
"+.+.+.+.+$$$$$$$$$$@ ########## ",
".+.+.+.+.$#########@      =-#   ",
"+.+.+.+.+$#+++++++%@     =-#    ",
".+.+.+.+@$#+ +++++%@    =-#     ",
"+.+.+.+@#$#+++++++%@   =-#      ",
".+.+.+@# $#+++++++%@    =-#     ",
"+.+.+@#  $#+++++++%@     =-#    ",
".+.+@#   $#+++++++%@    =-#     ",
"+.+@#    $#########@   =-#      ",
".+@#        @@@@@#    =-#       ",
"+@#     $$$$$$$$$$$$@#-#        ",
"@#      $$$$$$$@@@$$@##         ",
"#       $$$$$$$$$$$$@#          ",
"        @@@@@@@@@@@@@#          ",
"        ##############          "};
