/* XPM */
static char * moonscape_icon_pack_linux\venkman_window_xpm[] = {
"32 32 7 1",
" 	c None",
".	c #008080",
"+	c #0000FF",
"@	c #C0C0C0",
"#	c #000000",
"$	c #FFFFFF",
"%	c #808080",
".+.+.+.+.+.+.+.+.+.+.+.+.+.+.+.+",
"+.+.+.+.+.+.+.+.+.+.+.+.+.+.+.@#",
".+.+.+.+.+.+.+.+.+.+.+.+.+.+.@# ",
"+.+.+.+.+.+.+.+.+.+.+.+.+.+.@#  ",
".+.+.+.+.+.+.+.+.+.+.+.+.+.@#   ",
"+.+.+.+.@@@$$#+.+.+.+.+.+.@#    ",
".+.+.+.+.@@@$$#+.+.+.+.+.@#     ",
"+.+.+.+.+.@@@$$#+.+.+.+.@#      ",
".+.+.+.+.+.@@@$$#+.+.+.@#       ",
"+.+.+.+.+.+.@@@$$#+.+.@#        ",
".+.+.+.+.+.+.@@@$$#+.@#         ",
"+.+.+.+.+.+.+.@@@$$#@#          ",
".+.+.+.+.+.+.+.@@@$$#           ",
"+.+.+.+.+.+.+.+.@@@$$#          ",
".+.+.+.+.+.+.+.+.@@@$$#         ",
"+.+.+.+.+.+.+.+.@#@@@$$#        ",
".+.+.+.+.+.+.+.@#  @@@$$#       ",
"+.+.+.+.+.+.+.@#  @@@$$#%       ",
".+.+.+.+.+.+.@#  @@@$$#%        ",
"+.+.+.+.+.+.@#  @@@$$#%         ",
".+.+.+.+.+.@#  @@@$$#%          ",
"+.+.+.+.+.@#  @@@$$#%           ",
".+.+.+.+.@#  @@@$$#%            ",
"+.+.+.+.@#  @@@$$#%             ",
".+.+.+.@#  @@@$$#%              ",
"+.+.+.@#  @@@$$#%               ",
".+.+.@#  @@@$$#%                ",
"+.+.@#  @@@$$#%                 ",
".+.@#   %%%%%%                  ",
"+.@#                            ",
".@#                             ",
"+#                              "};
